<?xml version="1.0" encoding="UTF-8"?>
<svg id="Layer_1" data-name="Layer 1" xmlns="http://www.w3.org/2000/svg" viewBox="0 0 490.21 501.27">
  <defs>
    <style>
      .cls-1 {
        fill: none;
        stroke: #000;
        stroke-miterlimit: 10;
        stroke-width: 26px;
      }
    </style>
  </defs>
  <g>
    <path d="M16.82,500.77c-5.51,0-10.61-1.92-13.65-5.12-1.87-1.97-2.79-4.27-2.66-6.63L18.71,154.44c.33-6.12,7.5-10.91,16.31-10.91h421.28c8.83,0,16,4.8,16.31,10.93l17.09,334.57c.12,2.36-.81,4.65-2.68,6.62-3.04,3.2-8.14,5.11-13.63,5.11H16.82Z"/>
    <path d="M456.3,144.03c8.42,0,15.52,4.69,15.81,10.46l17.09,334.57c.11,2.22-.77,4.38-2.54,6.25-2.95,3.1-7.91,4.95-13.27,4.95H16.82c-5.37,0-10.34-1.86-13.28-4.97-1.77-1.87-2.65-4.04-2.53-6.26L19.21,154.46c.31-5.75,7.4-10.43,15.81-10.43h421.28M456.3,143.03H35.02c-9.04,0-16.46,5.03-16.81,11.38L.01,488.98c-.36,6.71,7.27,12.28,16.81,12.28h456.57c9.53,0,17.15-5.56,16.81-12.26l-17.09-334.57c-.33-6.37-7.75-11.41-16.81-11.41h0Z"/>
  </g>
  <path class="cls-1" d="M107.16,169.24c0-86.29,61.76-156.24,137.94-156.24s137.94,69.95,137.94,156.24"/>
</svg>